<svg version="1" id="Calque_1" xmlns="http://www.w3.org/2000/svg" x="0" y="0" viewBox="0 0 517.164 517.164" xml:space="preserve"><path d="M4 4v509.164h509.164V4H4z" fill="#fff"/><path d="M0 0v517.164h517.164V0H0zm513.164 513.164H4V4h509.164v509.164z" fill="#1b4687"/><path d="M116.721 105.955h42.54v42.54h-42.54v-42.54z" fill="#1b4687"/><path d="M178.731 105.955h42.547v42.54h-42.547v-42.54z" fill="#8693c2"/><path d="M238.175 105.955h42.547v42.54h-42.547v-42.54z" fill="#1b4687"/><path d="M302.781 105.955h42.54v42.54h-42.54v-42.54z" fill="#8693c2"/><path d="M367.379 105.955h42.547v42.54h-42.547v-42.54zM48.663 405.023c3.991-2.657 7.586-7.387 7.586-14.454 0-8.364-6.818-13.984-16.965-13.984h-19.87v62.969h18.21c12.856 0 22.187-8.014 22.187-19.055.001-8.306-5.085-13.369-11.148-15.476zm-15.347-3.066h-2.09v-15.681h4.905c5.513 0 8.309 2.125 8.309 6.315-.001 5.165-4.99 9.366-11.124 9.366zm-2.091 9.69h4.573c2.727 0 11.622.676 11.622 9.366 0 6.533-5.545 8.852-10.293 8.852h-5.901l-.001-18.218zm116.216-35.06l-25.086 62.97h11.894l6.204-17.425h19.408l5.954 17.425h13.313l-22.967-62.97h-8.72zm9.203 35.855h-12.549c2.203-5.797 4.369-11.736 6.492-18.642 2.038 6.963 4.039 12.882 6.057 18.642zm103.493-38.444h-12.105v65.558h37.107v-9.953h-25.002v-55.605zm109.796 2.589l-25.086 62.97h11.894l6.203-17.425h19.409l5.954 17.425h13.312l-22.967-62.97h-8.719zm9.204 35.855h-12.549c2.204-5.8 4.37-11.743 6.493-18.648 2.069 7.055 4.104 13.075 6.056 18.648zm113.712-9.694c-7.14-5.332-10.124-8.089-10.124-11.355 0-3.798 2.695-6.157 7.033-6.157 3.046 0 6.445 2.093 8.762 3.849l1.39 1.053 6.021-6.766-1.073-1.251c-3.642-4.246-9.178-6.584-15.589-6.584-10.236 0-18.255 6.965-18.255 15.856 0 8.746 5.228 12.897 9.84 16.561l.97.771c.711.542 1.511 1.113 2.358 1.718 4.525 3.228 10.158 7.244 10.158 12.616 0 7.083-5.668 7.848-8.105 7.848-4.752 0-8.065-2.42-11.324-4.799l-1.538-1.123-5.55 7.753 1.116 1.131c4.901 4.966 12.234 6.735 17.462 6.735 9.66 0 19.651-6.501 19.651-17.38 0-9.237-6.342-15.297-13.203-20.476zM28.704 340.374c0-9.617 8.439-15.832 21.5-15.832 6.057 0 10.579 1.574 13.036 2.698l1.554-1.611c-2.995-1.447-8.113-2.814-14.666-2.814-17.72 0-27.281 9.102-27.281 17.665 0 8.896 8.146 17.871 26.345 17.871 5.008 0 10.433-.729 16.565-2.225v-13.051h-5.132v11.974l-.631.222c-2.726.955-5.794 1.345-10.59 1.345-11.994-.001-20.7-6.831-20.7-16.242zm114.041 1.087c5.384-2.505 7.786-5.487 7.786-9.671 0-6.149-6.985-8.34-13.523-8.34h-13.305v34.225h5.026v-14.966h8.754l11.464 15.475 4.899-1.092-12.194-15.122 1.093-.509zm-9.156-.472h-4.86v-15.812h6.86c5.897 0 9.418 2.647 9.418 7.081 0 8.101-8.74 8.731-11.418 8.731zm92.707-18.174c-14.004 0-24.564 7.371-24.564 17.146 0 10.828 10.101 18.391 24.564 18.391s24.564-7.562 24.564-18.391c0-9.775-10.56-17.146-24.564-17.146zm0 33.8c-13.77 0-18.655-8.972-18.655-16.655 0-7.675 5.769-15.418 18.655-15.418s18.655 7.743 18.655 15.418c0 7.684-4.886 16.655-18.655 16.655zm97.391.16c-9.364 0-13.916-4.043-13.916-12.36V323.45h-5.139v21.169c0 9.369 6.055 13.733 19.055 13.733 11.136 0 18.331-5.086 18.331-12.956V323.45h-4.709v21.84c0 8.468-7.037 11.485-13.622 11.485zm100.681-23.836c0-8.253-10.175-9.485-16.24-9.485h-11.704v34.26h5.086v-32.531h5.758c3.46 0 11.509.761 11.509 7.81 0 5.612-4.23 8.862-11.911 9.152l-1.386.033v1.44h1.282c8.654-.001 17.606-3.995 17.606-10.679zm59.634 7.522h17.417v-1.721h-17.417v-13.562h17.779v-1.726h-22.85v34.259h25.929v-1.728h-20.858v-15.522z" fill="#1b4687"/></svg>